<?xml version="1.0" encoding="UTF-8" standalone="no"?>
<svg
   xmlns:dc="http://purl.org/dc/elements/1.1/"
   xmlns:cc="http://creativecommons.org/ns#"
   xmlns:rdf="http://www.w3.org/1999/02/22-rdf-syntax-ns#"
   xmlns:svg="http://www.w3.org/2000/svg"
   xmlns="http://www.w3.org/2000/svg"
   xmlns:xlink="http://www.w3.org/1999/xlink"
   xmlns:sodipodi="http://sodipodi.sourceforge.net/DTD/sodipodi-0.dtd"
   xmlns:inkscape="http://www.inkscape.org/namespaces/inkscape"
   inkscape:version="1.0 (4035a4fb49, 2020-05-01)"
   sodipodi:docname="notification.svg"
   version="1.1"
   viewBox="0 0 22 22"
   id="svg45">
  <sodipodi:namedview
     inkscape:current-layer="svg45"
     inkscape:window-maximized="1"
     inkscape:window-y="31"
     inkscape:window-x="0"
     inkscape:cy="32.091207"
     inkscape:cx="20.807325"
     inkscape:zoom="5.7452426"
     showgrid="false"
     id="namedview31"
     inkscape:window-height="1049"
     inkscape:window-width="1920"
     inkscape:pageshadow="2"
     inkscape:pageopacity="0"
     guidetolerance="10"
     gridtolerance="10"
     objecttolerance="10"
     borderopacity="1"
     bordercolor="#666666"
     pagecolor="#ffffff" />
  <metadata
     id="metadata49">
    <rdf:RDF>
      <cc:Work
         rdf:about="">
        <dc:format>image/svg+xml</dc:format>
        <dc:type
           rdf:resource="http://purl.org/dc/dcmitype/StillImage" />
        <dc:title />
      </cc:Work>
    </rdf:RDF>
  </metadata>
  <defs
     id="defs3">
    <style
       id="current-color-scheme"
       type="text/css">.ColorScheme-Text { color:#363636; }</style>
  </defs>
  <g
     class="ColorScheme-Text"
     fill="currentColor"
     id="g21">
    <path
       id="expander-bottom"
       class="ColorScheme-Text"
       fill="currentColor"
       d="m -18,23 2,-2 2,2 z" />
    <path
       id="expander-top"
       class="ColorScheme-Text"
       fill="currentColor"
       d="m -18,17 2,2 2,-2 z" />
    <path
       id="expander-right"
       class="ColorScheme-Text"
       fill="currentColor"
       d="m -13,18 -2,2 2,2 z" />
    <path
       id="expander-left"
       class="ColorScheme-Text"
       fill="currentColor"
       d="m -19,18 2,2 -2,2 z" />
    <g
       id="notification-empty"
       class="ColorScheme-Text"
       fill="currentColor">
      <rect
         y="0"
         x="0"
         width="22"
         height="22"
         ry="0"
         opacity="0"
         id="rect9" />
      <path
         d="M 10.994,2.0097 C 9.7677,2.0169165 8.8362,3.1151 9.0292,4.3261 L 8.986231,4.339772 c -2.3258,0.82764 -3.9902,3.0482 -3.9902,5.6582 v 2.002 h 0.00391 c -1.888e-4,0.84085 -0.32954,1.642 -0.75781,2.3418 -0.47964,0.78375 -1.4188,1.4875 -1.9492,1.9492 -0.356,0.30992 -0.39174,1.0243 0,1.416 0.19841,0.19841 0.45742,0.29359 0.7168,0.29102 h 15.98 c 0.25938,0.0026 0.51839,-0.09261 0.7168,-0.29102 0.39174,-0.39174 0.356,-1.1061 0,-1.416 -0.5304,-0.46174 -1.4696,-1.1655 -1.9492,-1.9492 -0.42827,-0.69981 -0.75762,-1.501 -0.75781,-2.3418 h 0.0039 v -2.002 c 0,-2.61 -1.6644,-4.8306 -3.9902,-5.6582 L 12.970251,4.3261 c 0.19293,-1.211 -0.73858,-2.3092 -1.9648,-2.3164 -0.002,-1.2e-5 -0.0039,6e-6 -0.0059,0 -0.002,5.8e-6 -0.0039,-1.17e-5 -0.0059,0 z m 0.0059,3.9883 c 2.2107,0 4.0039,1.7912 4.0039,4.002 v 2.0001 h -0.0039 c 4.68e-4,1.3712 0.45966,2.7259 1.3418,3.7578 l 0.20703,0.24219 H 5.45073 L 5.65776,15.7579 c 0.79483,-1.1006 1.3413,-2.3866 1.3418,-3.7578 H 6.99565 V 10 c 3.8e-6,-2.2107 1.7932,-4.002 4.0039,-4.002 z m -2.002,13 c 0,1.3346 1.001,2.002 2.002,2.002 1.001,0 2.002,-0.66732 2.002,-2.002 z"
         class="ColorScheme-Text"
         fill="currentColor"
         id="path11" />
    </g>
    <g
       id="notification-progress-active"
       class="ColorScheme-Text"
       fill="currentColor"
       transform="translate(55.997,-0.004652)">
      <rect
         class="ColorScheme-Text"
         fill="currentColor"
         x="40"
         y="-1"
         width="22"
         height="22"
         fill-opacity="0"
         id="rect14" />
      <path
         d="m 51,1 a 9,9 0 0 0 -9,9 9,9 0 0 0 9,9 9,9 0 0 0 9,-9 9,9 0 0 0 -9,-9 z m 0,2 a 7,7 0 0 1 7,7 7,7 0 0 1 -7,7 7,7 0 0 1 -7,-7 7,7 0 0 1 7,-7 z"
         class="ColorScheme-Text"
         fill="currentColor"
         id="path16" />
      <circle
         cx="51"
         cy="10"
         r="6"
         class="ColorScheme-Text"
         fill="currentColor"
         id="circle18" />
    </g>
    <g
       transform="translate(45.018395,72.246282)"
       fill="currentColor"
       class="ColorScheme-Text"
       id="notification-inactive">
      <rect
         id="rect862"
         opacity="0"
         ry="0"
         height="22"
         width="22"
         x="0"
         y="0" />
      <path
         id="path864"
         fill="currentColor"
         class="ColorScheme-Text"
         d="M 10.994,2.0097 C 9.7677,2.0169165 8.8362,3.1151 9.0292,4.3261 L 8.986231,4.339772 c -2.3258,0.82764 -3.9902,3.0482 -3.9902,5.6582 v 2.002 h 0.00391 c -1.888e-4,0.84085 -0.32954,1.642 -0.75781,2.3418 -0.47964,0.78375 -1.4188,1.4875 -1.9492,1.9492 -0.356,0.30992 -0.39174,1.0243 0,1.416 0.19841,0.19841 0.45742,0.29359 0.7168,0.29102 h 15.98 c 0.25938,0.0026 0.51839,-0.09261 0.7168,-0.29102 0.39174,-0.39174 0.356,-1.1061 0,-1.416 -0.5304,-0.46174 -1.4696,-1.1655 -1.9492,-1.9492 -0.42827,-0.69981 -0.75762,-1.501 -0.75781,-2.3418 h 0.0039 v -2.002 c 0,-2.61 -1.6644,-4.8306 -3.9902,-5.6582 L 12.970251,4.3261 c 0.19293,-1.211 -0.73858,-2.3092 -1.9648,-2.3164 -0.002,-1.2e-5 -0.0039,6e-6 -0.0059,0 -0.002,5.8e-6 -0.0039,-1.17e-5 -0.0059,0 z m 0.0059,3.9883 c 2.2107,0 4.0039,1.7912 4.0039,4.002 v 2.0001 h -0.0039 c 4.68e-4,1.3712 0.45966,2.7259 1.3418,3.7578 l 0.20703,0.24219 H 5.45073 L 5.65776,15.7579 c 0.79483,-1.1006 1.3413,-2.3866 1.3418,-3.7578 H 6.99565 V 10 c 3.8e-6,-2.2107 1.7932,-4.002 4.0039,-4.002 z m -2.002,13 c 0,1.3346 1.001,2.002 2.002,2.002 1.001,0 2.002,-0.66732 2.002,-2.002 z" />
    </g>
  </g>
  <g
     id="notification-progress-inactive"
     transform="translate(56.998 39)"
     class="ColorScheme-Text"
     fill="currentColor">
    <rect
       x="40"
       y="-1"
       width="22"
       height="22"
       fill-opacity="0"
       id="rect23" />
    <path
       class="ColorScheme-Text"
       fill="currentColor"
       d="m51 1a9 9 0 0 0-9 9 9 9 0 0 0 9 9 9 9 0 0 0 9-9 9 9 0 0 0-9-9zm0 2a7 7 0 0 1 7 7 7 7 0 0 1-7 7 7 7 0 0 1-7-7 7 7 0 0 1 7-7z"
       id="path25" />
    <circle
       class="ColorScheme-Text"
       fill="currentColor"
       cx="51"
       cy="10"
       r="6"
       opacity=".15"
       id="circle27" />
  </g>
  <use
     y="0"
     x="0"
     style="opacity:1"
     id="notification-disabled"
     transform="translate(0,37.674)"
     width="100%"
     height="100%"
     xlink:href="#notification-empty" />
  <g
     id="notification-active"
     transform="translate(0,28.131)"
     class="ColorScheme-Text"
     fill="currentColor">
    <circle
       cx="67"
       cy="-25"
       r="3"
       class="ColorScheme-Text"
       fill="currentColor"
       id="circle31" />
    <rect
       x="51.001999"
       y="-31.997999"
       width="22"
       height="22"
       ry="0"
       opacity="0"
       id="rect33" />
    <path
       d="m 61.996,-29.988 c -1.2263,0.0072 -2.1578,1.1054 -1.9648,2.3164 l -0.04297,0.01367 c -2.3258,0.82764 -3.9902,3.0482 -3.9902,5.6582 v 2.002 h 0.0039 c -1.89e-4,0.84085 -0.32954,1.642 -0.75781,2.3418 -0.47964,0.78375 -1.4188,1.4875 -1.9492,1.9492 -0.356,0.30992 -0.39174,1.0243 0,1.416 0.19841,0.19841 0.45742,0.29359 0.7168,0.29102 h 15.98 c 0.25938,0.0026 0.51839,-0.09261 0.7168,-0.29102 0.39174,-0.39174 0.356,-1.1061 0,-1.416 -0.5304,-0.46174 -1.4696,-1.1655 -1.9492,-1.9492 -0.42827,-0.69981 -0.75762,-1.501 -0.75781,-2.3418 h 0.0039 v -1.1348 a 4,4 0 0 1 -1.0058,0.13281 4,4 0 0 1 -0.99414,-0.13086 v 1.1328 h -0.0039 c 4.68e-4,1.3712 0.45966,2.7259 1.3418,3.7578 l 0.20703,0.24219 h -11.098 l 0.20703,-0.24219 c 0.79483,-1.1006 1.3413,-2.3866 1.3418,-3.7578 h -0.0039 v -2 c 4e-6,-2.2107 1.7932,-4.002 4.0039,-4.002 0.37972,0 0.73978,0.06923 1.0879,0.16797 a 4,4 0 0 1 0.92578,-1.8262 l -0.04297,-0.01367 c 0.19293,-1.211 -0.73862,-2.3092 -1.9648,-2.3164 -0.002,-1.2e-5 -0.0039,6e-6 -0.0059,0 -0.002,6e-6 -0.0039,-1.2e-5 -0.0059,0 z M 59.9999,-13 c 0,1.3346 1.001,2.002 2.002,2.002 1.001,0 2.002,-0.66727 2.002,-2.002 z"
       class="ColorScheme-Text"
       fill="currentColor"
       id="path35" />
  </g>
  <g
     id="g868"
     transform="translate(0,66.998)"
     class="ColorScheme-Text"
     fill="currentColor">
    <circle
       cx="67"
       cy="-25"
       r="3"
       class="ColorScheme-Text"
       fill="currentColor"
       opacity="0.35"
       id="circle38" />
    <rect
       x="51.001999"
       y="-31.997999"
       width="22"
       height="22"
       ry="0"
       opacity="0"
       id="rect40" />
    <path
       d="m 61.996,-29.988 c -1.2263,0.0072 -2.1578,1.1054 -1.9648,2.3164 l -0.04297,0.01367 c -2.3258,0.82764 -3.9902,3.0482 -3.9902,5.6582 v 2.002 h 0.0039 c -1.89e-4,0.84085 -0.32954,1.642 -0.75781,2.3418 -0.47964,0.78375 -1.4188,1.4875 -1.9492,1.9492 -0.356,0.30992 -0.39174,1.0243 0,1.416 0.19841,0.19841 0.45742,0.29359 0.7168,0.29102 h 15.98 c 0.25938,0.0026 0.51839,-0.09261 0.7168,-0.29102 0.39174,-0.39174 0.356,-1.1061 0,-1.416 -0.5304,-0.46174 -1.4696,-1.1655 -1.9492,-1.9492 -0.42827,-0.69981 -0.75762,-1.501 -0.75781,-2.3418 h 0.0039 v -1.1348 a 4,4 0 0 1 -1.0058,0.13281 4,4 0 0 1 -0.99414,-0.13086 v 1.1328 h -0.0039 c 4.68e-4,1.3712 0.45966,2.7259 1.3418,3.7578 l 0.20703,0.24219 h -11.098 l 0.20703,-0.24219 c 0.79483,-1.1006 1.3413,-2.3866 1.3418,-3.7578 h -0.0039 v -2 c 4e-6,-2.2107 1.7932,-4.002 4.0039,-4.002 0.37972,0 0.73978,0.06923 1.0879,0.16797 a 4,4 0 0 1 0.92578,-1.8262 l -0.04297,-0.01367 c 0.19293,-1.211 -0.73862,-2.3092 -1.9648,-2.3164 -0.002,-1.2e-5 -0.0039,6e-6 -0.0059,0 -0.002,6e-6 -0.0039,-1.2e-5 -0.0059,0 z M 59.9999,-13 c 0,1.3346 1.001,2.002 2.002,2.002 1.001,0 2.002,-0.66727 2.002,-2.002 z"
       class="ColorScheme-Text"
       fill="currentColor"
       id="path42" />
  </g>
</svg>
